<svg version="1.1" viewBox="0.0 0.0 289.005249343832 473.7165354330709" fill="none" stroke="none" stroke-linecap="square" stroke-miterlimit="10" xmlns:xlink="http://www.w3.org/1999/xlink" xmlns="http://www.w3.org/2000/svg"><clipPath id="p.0"><path d="m0 0l289.00525 0l0 473.71652l-289.00525 0l0 -473.71652z" clip-rule="nonzero"/></clipPath><g clip-path="url(#p.0)"><path fill="#000000" fill-opacity="0.0" d="m0 0l289.00525 0l0 473.71652l-289.00525 0z" fill-rule="evenodd"/><path fill="#000000" d="m0 0l289.00787 0l0 474.96063l-289.00787 0z" fill-rule="evenodd"/><path fill="#ffffff" d="m121.703125 393.0l-110.9375 -286.32812l41.015625 0l74.40625 208.0q8.984375 25.0 15.046875 46.875q6.640625 -23.4375 15.421875 -46.875l77.34375 -208.0l38.671875 0l-112.109375 286.32812l-38.859375 0z" fill-rule="nonzero"/><path fill="#000000" fill-opacity="0.0" d="m95.88714 116.48594l97.22834 0l0 76.15748l-97.22834 0z" fill-rule="evenodd"/><path fill="#1155cc" d="m135.30902 144.37843l-7.140625 0l0 27.1875l-4.1250076 0l0 -7.015625q-0.984375 0.75 -1.96875 1.25q-0.984375 0.484375 -2.0 0.78125q-1.0 0.296875 -2.03125 0.421875q-1.015625 0.109375 -2.046875 0.109375q-1.890625 0 -3.5625 -0.71875q-1.65625 -0.734375 -2.875 -1.984375q-1.21875 -1.265625 -1.921875 -2.9375q-0.703125 -1.671875 -0.703125 -3.59375q0 -1.96875 0.765625 -3.59375q0.78125 -1.640625 2.140625 -2.8125q1.359375 -1.171875 3.21875 -1.8125q1.859375 -0.640625 4.046875 -0.640625q1.1875 0 2.234375 0.1875q1.046875 0.1875 1.921875 0.453125q0.875 0.265625 1.578125 0.578125q0.703125 0.296875 1.203125 0.5625l0 -6.421875l-19.203125 0l0 -3.75l30.468758 0l0 3.75zm-11.265633 10.09375q-0.640625 -0.34375 -1.46875 -0.6875q-0.8125 -0.359375 -1.71875 -0.65625q-0.890625 -0.3125 -1.828125 -0.5q-0.9375 -0.1875 -1.78125 -0.1875q-2.28125 0 -3.59375 0.640625q-1.3125 0.625 -1.984375 1.515625q-0.65625 0.890625 -0.84375 1.859375q-0.171875 0.953125 -0.171875 1.625q0 1.15625 0.4375 2.15625q0.453125 0.984375 1.21875 1.734375q0.78125 0.734375 1.828125 1.15625q1.0625 0.421875 2.265625 0.421875q1.5625 0 2.859375 -0.4375q1.3125 -0.4375 2.296875 -1.0q0.984375 -0.578125 1.609375 -1.15625q0.640625 -0.578125 0.875 -0.859375l0 -5.625zm29.203133 -4.59375q0 2.0625 -0.515625 3.984375q-0.5 1.921875 -1.515625 3.515625q-1.0 1.59375 -2.5 2.796875q-1.5 1.1875 -3.484375 1.796875l7.46875 8.203125l-3.0625 2.828125l-13.78125 -15.015625l3.0625 -2.828125l2.890625 3.140625q0.140625 0.140625 0.71875 0.140625q1.359375 0 2.578125 -0.671875q1.21875 -0.671875 2.140625 -1.828125q0.9375 -1.15625 1.46875 -2.71875q0.546875 -1.5625 0.546875 -3.34375q0 -0.25 -0.046875 -0.53125q-0.03125 -0.28125 -0.078125 -0.5625q-0.484375 0.765625 -1.1875 1.421875q-0.6875 0.640625 -1.53125 1.09375q-0.84375 0.453125 -1.8125 0.703125q-0.953125 0.25 -1.953125 0.25q-1.640625 0 -2.875 -0.484375q-1.234375 -0.484375 -2.0625 -1.28125q-0.8125 -0.8125 -1.21875 -1.90625q-0.40625 -1.09375 -0.40625 -2.328125q0 -1.484375 0.59375 -2.734375q0.59375 -1.25 1.625 -2.171875q1.03125 -0.9375 2.40625 -1.453125q1.390625 -0.515625 2.96875 -0.515625q2.203125 0 3.96875 0.75q1.765625 0.75 3.0 2.140625q1.25 1.375 1.921875 3.3125q0.671875 1.9375 0.671875 4.296875zm17.078125 -5.5l-7.140625 0l0 27.1875l-4.125 0l0 -27.1875l-2.9375 0l0 -3.75l14.203125 0l0 3.75zm-22.734375 1.046875q-0.765625 -0.984375 -1.796875 -1.59375q-1.015625 -0.609375 -2.109375 -0.609375q-0.796875 0 -1.484375 0.21875q-0.671875 0.203125 -1.171875 0.59375q-0.484375 0.390625 -0.765625 0.953125q-0.265625 0.5625 -0.265625 1.265625q0 0.53125 0.25 0.953125q0.265625 0.421875 0.703125 0.75q0.4375 0.3125 1.0 0.484375q0.5625 0.15625 1.171875 0.15625q0.5625 0 1.125 -0.109375q0.578125 -0.125 1.140625 -0.46875q0.5625 -0.359375 1.109375 -0.984375q0.5625 -0.625 1.09375 -1.609375zm15.796875 -10.78125l0 0zm19.453125 9.734375l-7.125 0l0 27.1875l-4.125 0l0 -27.1875l-2.953125 0l0 -3.75l1.546875 0q-4.765625 -7.546875 -7.53125 -7.546875q-3.234375 0 -3.234375 2.875q0 1.34375 3.078125 6.0l-3.140625 1.953125q-3.75 -5.390625 -3.75 -8.234375q0 -2.78125 1.703125 -4.5q1.8125 -1.796875 4.96875 -1.796875q3.75 0 7.53125 4.1875q1.71875 1.90625 5.0 7.0625l8.03125 0l0 3.75zm-19.453125 25.171875l0 0zm9.9375 -31.90625l0 0z" fill-rule="nonzero"/></g></svg>