<?xml version="1.0" encoding="UTF-8" standalone="no"?><svg xmlns="http://www.w3.org/2000/svg" xmlns:xlink="http://www.w3.org/1999/xlink" contentScriptType="application/ecmascript" contentStyleType="text/css" height="264px" preserveAspectRatio="none" style="width:335px;height:264px;" version="1.1" viewBox="0 0 335 264" width="335px" zoomAndPan="magnify"><defs><filter height="300%" id="fc40e7sa7zknq" width="300%" x="-1" y="-1"><feGaussianBlur result="blurOut" stdDeviation="2.0"/><feColorMatrix in="blurOut" result="blurOut2" type="matrix" values="0 0 0 0 0 0 0 0 0 0 0 0 0 0 0 0 0 0 .4 0"/><feOffset dx="4.0" dy="4.0" in="blurOut2" result="blurOut3"/><feBlend in="SourceGraphic" in2="blurOut3" mode="normal"/></filter></defs><g><!--class Controller--><rect fill="#FEFECE" filter="url(#fc40e7sa7zknq)" height="99.2188" id="Controller" style="stroke: #A80036; stroke-width: 1.5;" width="93" x="118.5" y="8"/><ellipse cx="133.5" cy="24" fill="#ADD1B2" rx="11" ry="11" style="stroke: #A80036; stroke-width: 1.0;"/><path d="M135.8438,19.6719 L136.0156,19.75 C136.2344,19.4375 136.4375,19.3438 136.7344,19.3438 C137.0313,19.3438 137.3125,19.4844 137.4688,19.75 C137.5625,19.9063 137.5781,20.0313 137.5781,20.4688 L137.5781,21.8906 C137.5781,22.3125 137.5469,22.5 137.4375,22.6563 C137.2656,22.875 137,23.0156 136.7344,23.0156 C136.5156,23.0156 136.2813,22.9063 136.1406,22.7656 C136,22.6406 135.9688,22.5156 135.9063,22.1094 C135.8125,21.7031 135.6406,21.4844 135.1563,21.2031 C134.6875,20.9531 134.0781,20.7969 133.5,20.7969 C131.7656,20.7969 130.5156,22.1094 130.5156,23.8906 L130.5156,24.9844 C130.5156,26.6875 131.8125,27.7813 133.8594,27.7813 C134.625,27.7813 135.3125,27.6563 135.7344,27.3906 C135.9219,27.2969 135.9219,27.2969 136.375,26.8125 C136.5625,26.625 136.7656,26.5469 136.9844,26.5469 C137.4531,26.5469 137.8438,26.9375 137.8438,27.3906 C137.8438,27.7813 137.5156,28.2344 136.9375,28.6406 C136.1875,29.1875 135.0313,29.4844 133.8125,29.4844 C130.9219,29.4844 128.8125,27.5938 128.8125,25.0156 L128.8125,23.8906 C128.8125,21.1719 130.8125,19.0938 133.4375,19.0938 C134.3125,19.0938 134.9063,19.2344 135.8438,19.6719 Z "/><text fill="#000000" font-family="sans-serif" font-size="12" lengthAdjust="spacingAndGlyphs" textLength="61" x="147.5" y="28.1543">Controller</text><line style="stroke: #A80036; stroke-width: 1.5;" x1="119.5" x2="210.5" y1="40" y2="40"/><line style="stroke: #A80036; stroke-width: 1.5;" x1="119.5" x2="210.5" y1="48" y2="48"/><text fill="#000000" font-family="sans-serif" font-size="11" lengthAdjust="spacingAndGlyphs" textLength="25" x="124.5" y="62.2104">init()</text><text fill="#000000" font-family="sans-serif" font-size="11" lengthAdjust="spacingAndGlyphs" textLength="68" x="124.5" y="75.0151">get(req,res)</text><text fill="#000000" font-family="sans-serif" font-size="11" lengthAdjust="spacingAndGlyphs" textLength="75" x="124.5" y="87.8198">post(req,res)</text><text fill="#000000" font-family="sans-serif" font-size="11" lengthAdjust="spacingAndGlyphs" textLength="51" x="124.5" y="100.6245">destroy()</text><!--class C1--><rect fill="#FEFECE" filter="url(#fc40e7sa7zknq)" height="60.8047" id="C1" style="stroke: #A80036; stroke-width: 1.5;" width="80" x="6" y="179.5"/><ellipse cx="35.4" cy="195.5" fill="#ADD1B2" rx="11" ry="11" style="stroke: #A80036; stroke-width: 1.0;"/><path d="M37.7438,191.1719 L37.9156,191.25 C38.1344,190.9375 38.3375,190.8438 38.6344,190.8438 C38.9313,190.8438 39.2125,190.9844 39.3688,191.25 C39.4625,191.4063 39.4781,191.5313 39.4781,191.9688 L39.4781,193.3906 C39.4781,193.8125 39.4469,194 39.3375,194.1563 C39.1656,194.375 38.9,194.5156 38.6344,194.5156 C38.4156,194.5156 38.1813,194.4063 38.0406,194.2656 C37.9,194.1406 37.8688,194.0156 37.8063,193.6094 C37.7125,193.2031 37.5406,192.9844 37.0563,192.7031 C36.5875,192.4531 35.9781,192.2969 35.4,192.2969 C33.6656,192.2969 32.4156,193.6094 32.4156,195.3906 L32.4156,196.4844 C32.4156,198.1875 33.7125,199.2813 35.7594,199.2813 C36.525,199.2813 37.2125,199.1563 37.6344,198.8906 C37.8219,198.7969 37.8219,198.7969 38.275,198.3125 C38.4625,198.125 38.6656,198.0469 38.8844,198.0469 C39.3531,198.0469 39.7438,198.4375 39.7438,198.8906 C39.7438,199.2813 39.4156,199.7344 38.8375,200.1406 C38.0875,200.6875 36.9313,200.9844 35.7125,200.9844 C32.8219,200.9844 30.7125,199.0938 30.7125,196.5156 L30.7125,195.3906 C30.7125,192.6719 32.7125,190.5938 35.3375,190.5938 C36.2125,190.5938 36.8063,190.7344 37.7438,191.1719 Z "/><text fill="#000000" font-family="sans-serif" font-size="12" lengthAdjust="spacingAndGlyphs" textLength="16" x="52.6" y="199.6543">C1</text><line style="stroke: #A80036; stroke-width: 1.5;" x1="7" x2="85" y1="211.5" y2="211.5"/><line style="stroke: #A80036; stroke-width: 1.5;" x1="7" x2="85" y1="219.5" y2="219.5"/><text fill="#000000" font-family="sans-serif" font-size="11" lengthAdjust="spacingAndGlyphs" textLength="68" x="12" y="233.7104">get(req,res)</text><!--class C2--><rect fill="#FEFECE" filter="url(#fc40e7sa7zknq)" height="60.8047" id="C2" style="stroke: #A80036; stroke-width: 1.5;" width="87" x="121.5" y="179.5"/><ellipse cx="154.05" cy="195.5" fill="#ADD1B2" rx="11" ry="11" style="stroke: #A80036; stroke-width: 1.0;"/><path d="M156.3938,191.1719 L156.5656,191.25 C156.7844,190.9375 156.9875,190.8438 157.2844,190.8438 C157.5813,190.8438 157.8625,190.9844 158.0188,191.25 C158.1125,191.4063 158.1281,191.5313 158.1281,191.9688 L158.1281,193.3906 C158.1281,193.8125 158.0969,194 157.9875,194.1563 C157.8156,194.375 157.55,194.5156 157.2844,194.5156 C157.0656,194.5156 156.8313,194.4063 156.6906,194.2656 C156.55,194.1406 156.5188,194.0156 156.4563,193.6094 C156.3625,193.2031 156.1906,192.9844 155.7063,192.7031 C155.2375,192.4531 154.6281,192.2969 154.05,192.2969 C152.3156,192.2969 151.0656,193.6094 151.0656,195.3906 L151.0656,196.4844 C151.0656,198.1875 152.3625,199.2813 154.4094,199.2813 C155.175,199.2813 155.8625,199.1563 156.2844,198.8906 C156.4719,198.7969 156.4719,198.7969 156.925,198.3125 C157.1125,198.125 157.3156,198.0469 157.5344,198.0469 C158.0031,198.0469 158.3938,198.4375 158.3938,198.8906 C158.3938,199.2813 158.0656,199.7344 157.4875,200.1406 C156.7375,200.6875 155.5813,200.9844 154.3625,200.9844 C151.4719,200.9844 149.3625,199.0938 149.3625,196.5156 L149.3625,195.3906 C149.3625,192.6719 151.3625,190.5938 153.9875,190.5938 C154.8625,190.5938 155.4563,190.7344 156.3938,191.1719 Z "/><text fill="#000000" font-family="sans-serif" font-size="12" lengthAdjust="spacingAndGlyphs" textLength="16" x="171.95" y="199.6543">C2</text><line style="stroke: #A80036; stroke-width: 1.5;" x1="122.5" x2="207.5" y1="211.5" y2="211.5"/><line style="stroke: #A80036; stroke-width: 1.5;" x1="122.5" x2="207.5" y1="219.5" y2="219.5"/><text fill="#000000" font-family="sans-serif" font-size="11" lengthAdjust="spacingAndGlyphs" textLength="75" x="127.5" y="233.7104">post(req,res)</text><!--class C3--><rect fill="#FEFECE" filter="url(#fc40e7sa7zknq)" height="86.4141" id="C3" style="stroke: #A80036; stroke-width: 1.5;" width="80" x="244" y="167"/><ellipse cx="273.4" cy="183" fill="#ADD1B2" rx="11" ry="11" style="stroke: #A80036; stroke-width: 1.0;"/><path d="M275.7438,178.6719 L275.9156,178.75 C276.1344,178.4375 276.3375,178.3438 276.6344,178.3438 C276.9313,178.3438 277.2125,178.4844 277.3688,178.75 C277.4625,178.9063 277.4781,179.0313 277.4781,179.4688 L277.4781,180.8906 C277.4781,181.3125 277.4469,181.5 277.3375,181.6563 C277.1656,181.875 276.9,182.0156 276.6344,182.0156 C276.4156,182.0156 276.1813,181.9063 276.0406,181.7656 C275.9,181.6406 275.8688,181.5156 275.8063,181.1094 C275.7125,180.7031 275.5406,180.4844 275.0563,180.2031 C274.5875,179.9531 273.9781,179.7969 273.4,179.7969 C271.6656,179.7969 270.4156,181.1094 270.4156,182.8906 L270.4156,183.9844 C270.4156,185.6875 271.7125,186.7813 273.7594,186.7813 C274.525,186.7813 275.2125,186.6563 275.6344,186.3906 C275.8219,186.2969 275.8219,186.2969 276.275,185.8125 C276.4625,185.625 276.6656,185.5469 276.8844,185.5469 C277.3531,185.5469 277.7438,185.9375 277.7438,186.3906 C277.7438,186.7813 277.4156,187.2344 276.8375,187.6406 C276.0875,188.1875 274.9313,188.4844 273.7125,188.4844 C270.8219,188.4844 268.7125,186.5938 268.7125,184.0156 L268.7125,182.8906 C268.7125,180.1719 270.7125,178.0938 273.3375,178.0938 C274.2125,178.0938 274.8063,178.2344 275.7438,178.6719 Z "/><text fill="#000000" font-family="sans-serif" font-size="12" lengthAdjust="spacingAndGlyphs" textLength="16" x="290.6" y="187.1543">C3</text><line style="stroke: #A80036; stroke-width: 1.5;" x1="245" x2="323" y1="199" y2="199"/><line style="stroke: #A80036; stroke-width: 1.5;" x1="245" x2="323" y1="207" y2="207"/><text fill="#000000" font-family="sans-serif" font-size="11" lengthAdjust="spacingAndGlyphs" textLength="25" x="250" y="221.2104">init()</text><text fill="#000000" font-family="sans-serif" font-size="11" lengthAdjust="spacingAndGlyphs" textLength="68" x="250" y="234.0151">get(req,res)</text><text fill="#000000" font-family="sans-serif" font-size="11" lengthAdjust="spacingAndGlyphs" textLength="51" x="250" y="246.8198">destroy()</text><!--link Controller to C1--><path d="M113.942,123.074 C98.4902,142.615 82.2632,163.1377 69.5439,179.2239 " fill="none" id="Controller-C1" style="stroke: #A80036; stroke-width: 1.0;"/><polygon fill="none" points="108.468,118.71,126.364,107.363,119.45,127.393,108.468,118.71" style="stroke: #A80036; stroke-width: 1.0;"/><!--link Controller to C2--><path d="M165,127.463 C165,145.654 165,164.3381 165,179.2239 " fill="none" id="Controller-C2" style="stroke: #A80036; stroke-width: 1.0;"/><polygon fill="none" points="158,127.363,165,107.363,172,127.363,158,127.363" style="stroke: #A80036; stroke-width: 1.0;"/><!--link Controller to C3--><path d="M216.102,123.129 C227.832,137.964 240.007,153.3619 250.753,166.9523 " fill="none" id="Controller-C3" style="stroke: #A80036; stroke-width: 1.0;"/><polygon fill="none" points="210.55,127.393,203.636,107.363,221.532,118.71,210.55,127.393" style="stroke: #A80036; stroke-width: 1.0;"/><!--
@startuml
Controller <|- - C1
Controller <|- - C2
Controller <|- - C3

Controller : init()
Controller : get(req,res)
Controller : post(req,res)
Controller : destroy()


C1 : get(req,res)
C2 : post(req,res)
C3 : init()
C3 : get(req,res)
C3 : destroy()
@enduml

PlantUML version 1.2018.09beta4(Unknown compile time)
(GPL source distribution)
Java Runtime: Java(TM) SE Runtime Environment
JVM: Java HotSpot(TM) 64-Bit Server VM
Java Version: 1.7.0_25-b15
Operating System: Linux
Default Encoding: UTF-8
Language: en
Country: US
--></g></svg>