<?xml version="1.0" encoding="UTF-8" standalone="no"?><svg xmlns="http://www.w3.org/2000/svg" xmlns:xlink="http://www.w3.org/1999/xlink" contentScriptType="application/ecmascript" contentStyleType="text/css" height="264px" preserveAspectRatio="none" style="width:246px;height:264px;" version="1.1" viewBox="0 0 246 264" width="246px" zoomAndPan="magnify"><defs><filter height="300%" id="f1bgnaleshqvzy" width="300%" x="-1" y="-1"><feGaussianBlur result="blurOut" stdDeviation="2.0"/><feColorMatrix in="blurOut" result="blurOut2" type="matrix" values="0 0 0 0 0 0 0 0 0 0 0 0 0 0 0 0 0 0 .4 0"/><feOffset dx="4.0" dy="4.0" in="blurOut2" result="blurOut3"/><feBlend in="SourceGraphic" in2="blurOut3" mode="normal"/></filter></defs><g><!--class Controller--><rect fill="#FEFECE" filter="url(#f1bgnaleshqvzy)" height="99.2188" id="Controller" style="stroke: #A80036; stroke-width: 1.5;" width="93" x="66.5" y="8"/><ellipse cx="81.5" cy="24" fill="#ADD1B2" rx="11" ry="11" style="stroke: #A80036; stroke-width: 1.0;"/><path d="M83.8438,19.6719 L84.0156,19.75 C84.2344,19.4375 84.4375,19.3438 84.7344,19.3438 C85.0313,19.3438 85.3125,19.4844 85.4688,19.75 C85.5625,19.9063 85.5781,20.0313 85.5781,20.4688 L85.5781,21.8906 C85.5781,22.3125 85.5469,22.5 85.4375,22.6563 C85.2656,22.875 85,23.0156 84.7344,23.0156 C84.5156,23.0156 84.2813,22.9063 84.1406,22.7656 C84,22.6406 83.9688,22.5156 83.9063,22.1094 C83.8125,21.7031 83.6406,21.4844 83.1563,21.2031 C82.6875,20.9531 82.0781,20.7969 81.5,20.7969 C79.7656,20.7969 78.5156,22.1094 78.5156,23.8906 L78.5156,24.9844 C78.5156,26.6875 79.8125,27.7813 81.8594,27.7813 C82.625,27.7813 83.3125,27.6563 83.7344,27.3906 C83.9219,27.2969 83.9219,27.2969 84.375,26.8125 C84.5625,26.625 84.7656,26.5469 84.9844,26.5469 C85.4531,26.5469 85.8438,26.9375 85.8438,27.3906 C85.8438,27.7813 85.5156,28.2344 84.9375,28.6406 C84.1875,29.1875 83.0313,29.4844 81.8125,29.4844 C78.9219,29.4844 76.8125,27.5938 76.8125,25.0156 L76.8125,23.8906 C76.8125,21.1719 78.8125,19.0938 81.4375,19.0938 C82.3125,19.0938 82.9063,19.2344 83.8438,19.6719 Z "/><text fill="#000000" font-family="sans-serif" font-size="12" lengthAdjust="spacingAndGlyphs" textLength="61" x="95.5" y="28.1543">Controller</text><line style="stroke: #A80036; stroke-width: 1.5;" x1="67.5" x2="158.5" y1="40" y2="40"/><line style="stroke: #A80036; stroke-width: 1.5;" x1="67.5" x2="158.5" y1="48" y2="48"/><text fill="#000000" font-family="sans-serif" font-size="11" lengthAdjust="spacingAndGlyphs" textLength="25" x="72.5" y="62.2104">init()</text><text fill="#000000" font-family="sans-serif" font-size="11" lengthAdjust="spacingAndGlyphs" textLength="26" x="72.5" y="75.0151">get()</text><text fill="#000000" font-family="sans-serif" font-size="11" lengthAdjust="spacingAndGlyphs" textLength="33" x="72.5" y="87.8198">post()</text><text fill="#000000" font-family="sans-serif" font-size="11" lengthAdjust="spacingAndGlyphs" textLength="51" x="72.5" y="100.6245">destroy()</text><!--class C1--><rect fill="#FEFECE" filter="url(#f1bgnaleshqvzy)" height="60.8047" id="C1" style="stroke: #A80036; stroke-width: 1.5;" width="48" x="6" y="179.5"/><ellipse cx="21" cy="195.5" fill="#ADD1B2" rx="11" ry="11" style="stroke: #A80036; stroke-width: 1.0;"/><path d="M23.3438,191.1719 L23.5156,191.25 C23.7344,190.9375 23.9375,190.8438 24.2344,190.8438 C24.5313,190.8438 24.8125,190.9844 24.9688,191.25 C25.0625,191.4063 25.0781,191.5313 25.0781,191.9688 L25.0781,193.3906 C25.0781,193.8125 25.0469,194 24.9375,194.1563 C24.7656,194.375 24.5,194.5156 24.2344,194.5156 C24.0156,194.5156 23.7813,194.4063 23.6406,194.2656 C23.5,194.1406 23.4688,194.0156 23.4063,193.6094 C23.3125,193.2031 23.1406,192.9844 22.6563,192.7031 C22.1875,192.4531 21.5781,192.2969 21,192.2969 C19.2656,192.2969 18.0156,193.6094 18.0156,195.3906 L18.0156,196.4844 C18.0156,198.1875 19.3125,199.2813 21.3594,199.2813 C22.125,199.2813 22.8125,199.1563 23.2344,198.8906 C23.4219,198.7969 23.4219,198.7969 23.875,198.3125 C24.0625,198.125 24.2656,198.0469 24.4844,198.0469 C24.9531,198.0469 25.3438,198.4375 25.3438,198.8906 C25.3438,199.2813 25.0156,199.7344 24.4375,200.1406 C23.6875,200.6875 22.5313,200.9844 21.3125,200.9844 C18.4219,200.9844 16.3125,199.0938 16.3125,196.5156 L16.3125,195.3906 C16.3125,192.6719 18.3125,190.5938 20.9375,190.5938 C21.8125,190.5938 22.4063,190.7344 23.3438,191.1719 Z "/><text fill="#000000" font-family="sans-serif" font-size="12" lengthAdjust="spacingAndGlyphs" textLength="16" x="35" y="199.6543">C1</text><line style="stroke: #A80036; stroke-width: 1.5;" x1="7" x2="53" y1="211.5" y2="211.5"/><line style="stroke: #A80036; stroke-width: 1.5;" x1="7" x2="53" y1="219.5" y2="219.5"/><text fill="#000000" font-family="sans-serif" font-size="11" lengthAdjust="spacingAndGlyphs" textLength="26" x="12" y="233.7104">get()</text><!--class C2--><rect fill="#FEFECE" filter="url(#f1bgnaleshqvzy)" height="60.8047" id="C2" style="stroke: #A80036; stroke-width: 1.5;" width="48" x="89" y="179.5"/><ellipse cx="104" cy="195.5" fill="#ADD1B2" rx="11" ry="11" style="stroke: #A80036; stroke-width: 1.0;"/><path d="M106.3438,191.1719 L106.5156,191.25 C106.7344,190.9375 106.9375,190.8438 107.2344,190.8438 C107.5313,190.8438 107.8125,190.9844 107.9688,191.25 C108.0625,191.4063 108.0781,191.5313 108.0781,191.9688 L108.0781,193.3906 C108.0781,193.8125 108.0469,194 107.9375,194.1563 C107.7656,194.375 107.5,194.5156 107.2344,194.5156 C107.0156,194.5156 106.7813,194.4063 106.6406,194.2656 C106.5,194.1406 106.4688,194.0156 106.4063,193.6094 C106.3125,193.2031 106.1406,192.9844 105.6563,192.7031 C105.1875,192.4531 104.5781,192.2969 104,192.2969 C102.2656,192.2969 101.0156,193.6094 101.0156,195.3906 L101.0156,196.4844 C101.0156,198.1875 102.3125,199.2813 104.3594,199.2813 C105.125,199.2813 105.8125,199.1563 106.2344,198.8906 C106.4219,198.7969 106.4219,198.7969 106.875,198.3125 C107.0625,198.125 107.2656,198.0469 107.4844,198.0469 C107.9531,198.0469 108.3438,198.4375 108.3438,198.8906 C108.3438,199.2813 108.0156,199.7344 107.4375,200.1406 C106.6875,200.6875 105.5313,200.9844 104.3125,200.9844 C101.4219,200.9844 99.3125,199.0938 99.3125,196.5156 L99.3125,195.3906 C99.3125,192.6719 101.3125,190.5938 103.9375,190.5938 C104.8125,190.5938 105.4063,190.7344 106.3438,191.1719 Z "/><text fill="#000000" font-family="sans-serif" font-size="12" lengthAdjust="spacingAndGlyphs" textLength="16" x="118" y="199.6543">C2</text><line style="stroke: #A80036; stroke-width: 1.5;" x1="90" x2="136" y1="211.5" y2="211.5"/><line style="stroke: #A80036; stroke-width: 1.5;" x1="90" x2="136" y1="219.5" y2="219.5"/><text fill="#000000" font-family="sans-serif" font-size="11" lengthAdjust="spacingAndGlyphs" textLength="33" x="95" y="233.7104">post()</text><!--class C3--><rect fill="#FEFECE" filter="url(#f1bgnaleshqvzy)" height="86.4141" id="C3" style="stroke: #A80036; stroke-width: 1.5;" width="63" x="172.5" y="167"/><ellipse cx="194.25" cy="183" fill="#ADD1B2" rx="11" ry="11" style="stroke: #A80036; stroke-width: 1.0;"/><path d="M196.5938,178.6719 L196.7656,178.75 C196.9844,178.4375 197.1875,178.3438 197.4844,178.3438 C197.7813,178.3438 198.0625,178.4844 198.2188,178.75 C198.3125,178.9063 198.3281,179.0313 198.3281,179.4688 L198.3281,180.8906 C198.3281,181.3125 198.2969,181.5 198.1875,181.6563 C198.0156,181.875 197.75,182.0156 197.4844,182.0156 C197.2656,182.0156 197.0313,181.9063 196.8906,181.7656 C196.75,181.6406 196.7188,181.5156 196.6563,181.1094 C196.5625,180.7031 196.3906,180.4844 195.9063,180.2031 C195.4375,179.9531 194.8281,179.7969 194.25,179.7969 C192.5156,179.7969 191.2656,181.1094 191.2656,182.8906 L191.2656,183.9844 C191.2656,185.6875 192.5625,186.7813 194.6094,186.7813 C195.375,186.7813 196.0625,186.6563 196.4844,186.3906 C196.6719,186.2969 196.6719,186.2969 197.125,185.8125 C197.3125,185.625 197.5156,185.5469 197.7344,185.5469 C198.2031,185.5469 198.5938,185.9375 198.5938,186.3906 C198.5938,186.7813 198.2656,187.2344 197.6875,187.6406 C196.9375,188.1875 195.7813,188.4844 194.5625,188.4844 C191.6719,188.4844 189.5625,186.5938 189.5625,184.0156 L189.5625,182.8906 C189.5625,180.1719 191.5625,178.0938 194.1875,178.0938 C195.0625,178.0938 195.6563,178.2344 196.5938,178.6719 Z "/><text fill="#000000" font-family="sans-serif" font-size="12" lengthAdjust="spacingAndGlyphs" textLength="16" x="209.75" y="187.1543">C3</text><line style="stroke: #A80036; stroke-width: 1.5;" x1="173.5" x2="234.5" y1="199" y2="199"/><line style="stroke: #A80036; stroke-width: 1.5;" x1="173.5" x2="234.5" y1="207" y2="207"/><text fill="#000000" font-family="sans-serif" font-size="11" lengthAdjust="spacingAndGlyphs" textLength="25" x="178.5" y="221.2104">init()</text><text fill="#000000" font-family="sans-serif" font-size="11" lengthAdjust="spacingAndGlyphs" textLength="26" x="178.5" y="234.0151">get()</text><text fill="#000000" font-family="sans-serif" font-size="11" lengthAdjust="spacingAndGlyphs" textLength="51" x="178.5" y="246.8198">destroy()</text><!--link Controller to C1--><path d="M76.2602,125.119 C65.8254,144.039 54.9839,163.6979 46.4214,179.2239 " fill="none" id="Controller-C1" style="stroke: #A80036; stroke-width: 1.0;"/><polygon fill="none" points="70.2641,121.496,86.0523,107.363,82.5234,128.257,70.2641,121.496" style="stroke: #A80036; stroke-width: 1.0;"/><!--link Controller to C2--><path d="M113,127.463 C113,145.654 113,164.3381 113,179.2239 " fill="none" id="Controller-C2" style="stroke: #A80036; stroke-width: 1.0;"/><polygon fill="none" points="106,127.363,113,107.363,120,127.363,106,127.363" style="stroke: #A80036; stroke-width: 1.0;"/><!--link Controller to C3--><path d="M152.938,124.551 C161.641,138.945 170.621,153.7956 178.576,166.9523 " fill="none" id="Controller-C3" style="stroke: #A80036; stroke-width: 1.0;"/><polygon fill="none" points="146.903,128.1,142.545,107.363,158.884,120.856,146.903,128.1" style="stroke: #A80036; stroke-width: 1.0;"/><!--
@startuml
Controller <|- - C1
Controller <|- - C2
Controller <|- - C3

Controller : init()
Controller : get()
Controller : post()
Controller : destroy()


C1 : get()
C2 : post()
C3 : init()
C3 : get()
C3 : destroy()
@enduml

PlantUML version 1.2018.09beta4(Unknown compile time)
(GPL source distribution)
Java Runtime: Java(TM) SE Runtime Environment
JVM: Java HotSpot(TM) 64-Bit Server VM
Java Version: 1.7.0_25-b15
Operating System: Linux
Default Encoding: UTF-8
Language: en
Country: US
--></g></svg>