<svg version="1.1" viewBox="0.0 0.0 738.4304461942257 180.64566929133858" fill="none" stroke="none" stroke-linecap="square" stroke-miterlimit="10" xmlns:xlink="http://www.w3.org/1999/xlink" xmlns="http://www.w3.org/2000/svg"><clipPath id="p.0"><path d="m0 0l738.4304 0l0 180.64568l-738.4304 0l0 -180.64568z" clip-rule="nonzero"/></clipPath><g clip-path="url(#p.0)"><path fill="#000000" fill-opacity="0.0" d="m0 0l738.4304 0l0 180.64568l-738.4304 0z" fill-rule="evenodd"/><path fill="#000000" fill-opacity="0.0" d="m25.986877 41.80315l686.45667 0l0 97.03937l-686.45667 0z" fill-rule="evenodd"/><path fill="#cc0000" d="m123.892334 71.47502l0 2.875l-3.40625 0l-37.859375 41.984375l-2.40625 0l-37.65625 -41.984375l-4.46875 0l0 -2.875l46.9375 0l0 2.875l-1.875 0q-2.0 0 -3.109375 1.40625q-1.09375 1.390625 -1.09375 3.515625q0 3.203125 2.34375 5.53125l12.453125 12.671875l8.671875 -9.46875q2.0 -2.0625 2.0 -5.15625q0 -3.109375 -3.34375 -5.796875q-3.328125 -2.703125 -8.390625 -2.703125l-3.328125 0l0 -2.875l34.53125 0zm-39.59375 38.734375l-32.140625 -35.859375l-5.796875 0l35.0 39.046875l2.9375 -3.1875zm49.92035 -34.0l0.9375 3.46875q11.59375 -3.53125 26.515625 -3.53125q14.9375 0 20.640625 2.171875q5.703125 2.15625 5.703125 8.28125l0 19.40625q0 5.9375 6.0 5.9375l4.390625 0l0 2.859375l-32.859375 0l0 -3.46875q-9.734375 4.9375 -19.640625 4.9375q-9.890625 0 -14.421875 -4.03125q-4.53125 -4.03125 -4.53125 -9.796875q0 -5.765625 4.59375 -9.703125q4.609375 -3.9375 14.09375 -3.9375q9.5 0 19.90625 0.46875l0 -0.203125q0 -9.265625 -10.671875 -9.265625q-5.921875 0 -11.59375 2.109375q-5.65625 2.09375 -9.125 4.5625l-2.734375 0l0 -10.265625l2.796875 0zm16.53125 24.703125q0 3.296875 1.890625 5.53125q1.90625 2.234375 5.375 2.234375q3.46875 0 7.53125 -1.40625l0 -14.59375q-3.796875 -0.203125 -7.296875 -0.203125q-3.5 0 -5.5 2.5625q-2.0 2.5625 -2.0 5.875zm18.921875 -13.375l0 24.40625l3.40625 0l0 -24.40625q0 -6.203125 -8.265625 -7.921875l-0.125 0.453125q4.984375 2.0 4.984375 7.46875zm-22.125 26.734375l0 -0.40625q-5.796875 0 -9.09375 -3.453125q-3.296875 -3.46875 -3.296875 -8.0q0 -4.546875 3.296875 -7.90625q3.296875 -3.359375 9.15625 -3.359375l0 -0.40625q-8.0625 0 -12.53125 3.4375q-4.453125 3.421875 -4.453125 8.234375q0 4.796875 4.5 8.328125q4.5 3.53125 12.421875 3.53125zm113.51718 -34.0q0.328125 -1.265625 0.9375 -2.390625l2.859375 0l0 12.265625l-2.796875 0q-2.328125 -3.46875 -10.765625 -7.09375q-8.4375 -3.640625 -17.625 -3.640625q-6.671875 0 -6.671875 2.859375q0 3.203125 10.328125 4.671875q10.203125 1.53125 19.203125 4.390625q4.40625 1.46875 7.359375 4.546875q2.96875 3.0625 2.96875 7.25q0 13.140625 -25.65625 13.140625q-15.0 0 -28.46875 -4.46875l-1.46875 3.265625l-2.859375 0l0 -16.265625l2.859375 0q2.34375 6.203125 10.796875 10.46875q8.46875 4.265625 18.0625 4.265625q9.609375 0 9.609375 -2.59375q0 -1.671875 -4.265625 -3.203125q-4.265625 -1.53125 -10.34375 -3.0q-6.0625 -1.46875 -12.09375 -3.328125q-6.03125 -1.875 -10.296875 -5.0625q-4.265625 -3.203125 -4.265625 -7.28125q0 -5.796875 4.46875 -8.390625q4.671875 -2.734375 10.0625 -3.328125q5.0625 -0.609375 10.828125 -0.609375q5.765625 0 13.703125 1.078125q7.9375 1.0625 13.53125 2.453125zm-48.796875 8.46875q0 4.46875 6.59375 7.703125q6.609375 3.234375 21.8125 6.96875q6.53125 1.59375 9.71875 2.96875q3.203125 1.359375 5.34375 3.953125l0.53125 -0.0625q0 -3.40625 -2.46875 -5.328125q-1.328125 -1.0 -2.5625 -1.734375q-1.234375 -0.734375 -3.640625 -1.4375q-2.390625 -0.703125 -3.890625 -1.09375q-1.5 -0.40625 -4.609375 -1.109375q-3.09375 -0.703125 -6.0 -1.390625q-2.890625 -0.703125 -6.234375 -1.796875q-3.328125 -1.109375 -6.390625 -2.703125q-6.390625 -3.34375 -6.796875 -8.34375l-0.46875 0q-0.9375 1.875 -0.9375 3.40625zm103.78873 23.203125l4.40625 0l0 2.859375l-43.265625 0l0 -2.859375l4.40625 0q5.984375 0 5.984375 -5.9375l0 -19.59375q0 -2.40625 -1.765625 -4.171875q-1.765625 -1.765625 -4.21875 -1.765625l-4.40625 0l0 -2.859375l32.921875 0l-0.0625 28.390625q0 5.9375 6.0 5.9375zm-20.921875 0l0 -31.46875l-3.40625 0l0 31.46875l3.40625 0zm12.984375 -52.39062q4.0 2.453125 4.0 5.921871q0 3.46875 -4.0 5.90625q-4.0 2.421875 -9.671875 2.421875q-5.65625 0 -9.65625 -2.421875q-4.0 -2.4375 -4.0 -5.90625q0 -3.4687462 4.0 -5.921871q4.0 -2.46875 9.65625 -2.46875q5.671875 0 9.671875 2.46875zm-14.984375 11.718746q-2.40625 -2.53125 -2.40625 -5.859375q0 -3.3281212 2.40625 -5.734371q-2.546875 0.859375 -4.109375 2.4375q-1.5625 1.5625 -1.5625 3.3593712q0 1.796875 1.5625 3.375q1.5625 1.5625 4.109375 2.421875zm89.97781 9.0q0.328125 -1.265625 0.9375 -2.390625l2.859375 0l0 12.265625l-2.796875 0q-2.328125 -3.46875 -10.765625 -7.09375q-8.4375 -3.640625 -17.625 -3.640625q-6.671875 0 -6.671875 2.859375q0 3.203125 10.328125 4.671875q10.203125 1.53125 19.203125 4.390625q4.40625 1.46875 7.359375 4.546875q2.96875 3.0625 2.96875 7.25q0 13.140625 -25.65625 13.140625q-15.0 0 -28.46875 -4.46875l-1.46875 3.265625l-2.859375 0l0 -16.265625l2.859375 0q2.34375 6.203125 10.796875 10.46875q8.46875 4.265625 18.0625 4.265625q9.609375 0 9.609375 -2.59375q0 -1.671875 -4.265625 -3.203125q-4.265625 -1.53125 -10.34375 -3.0q-6.0625 -1.46875 -12.09375 -3.328125q-6.03125 -1.875 -10.296875 -5.0625q-4.265625 -3.203125 -4.265625 -7.28125q0 -5.796875 4.46875 -8.390625q4.671875 -2.734375 10.0625 -3.328125q5.0625 -0.609375 10.828125 -0.609375q5.765625 0 13.703125 1.078125q7.9375 1.0625 13.53125 2.453125zm-48.796875 8.46875q0 4.46875 6.59375 7.703125q6.609375 3.234375 21.8125 6.96875q6.53125 1.59375 9.71875 2.96875q3.203125 1.359375 5.34375 3.953125l0.53125 -0.0625q0 -3.40625 -2.46875 -5.328125q-1.328125 -1.0 -2.5625 -1.734375q-1.234375 -0.734375 -3.640625 -1.4375q-2.390625 -0.703125 -3.890625 -1.09375q-1.5 -0.40625 -4.609375 -1.109375q-3.09375 -0.703125 -6.0 -1.390625q-2.890625 -0.703125 -6.234375 -1.796875q-3.328125 -1.109375 -6.390625 -2.703125q-6.390625 -3.34375 -6.796875 -8.34375l-0.46875 0q-0.9375 1.875 -0.9375 3.40625zm82.86685 23.203125l0 -42.265625l-3.40625 0l0 42.265625l3.40625 0zm14.921875 -45.140625l0 19.34375q11.0 -10.0 23.125 -10.0q8.34375 0 12.109375 2.46875q3.765625 2.453125 3.765625 7.984375l0 19.40625q0 2.859375 1.5625 4.40625q1.5625 1.53125 4.4375 1.53125l4.390625 0l0 2.859375l-32.859375 0l0 -24.265625q0 -3.328125 -1.0 -4.71875q-1.0 -1.40625 -3.53125 -1.40625q-2.53125 0 -5.96875 1.703125q-3.4375 1.6875 -6.03125 4.21875l0 15.671875q0 2.859375 1.5625 4.40625q1.578125 1.53125 4.4375 1.53125l4.40625 0l0 2.859375l-43.265625 0l0 -2.859375l4.40625 0q2.859375 0 4.421875 -1.53125q1.5625 -1.546875 1.5625 -4.40625l0 -30.390625q0 -2.40625 -1.765625 -4.171875q-1.765625 -1.765625 -4.21875 -1.765625l-4.40625 0l0 -2.875l32.859375 0zm20.671875 24.203125l0 20.9375l3.390625 0l0 -20.9375q0 -3.125 -2.171875 -5.421875q-2.15625 -2.3125 -6.09375 -3.171875l-0.125 0.46875q2.328125 1.0 3.65625 3.140625q1.34375 2.125 1.34375 4.984375zm58.518616 25.265625q-9.328125 0 -12.859375 -3.0q-3.0 -2.53125 -3.0 -7.53125l0 -19.328125q0 -5.9375 -6.0 -5.9375l-4.609375 0l0 -2.859375l2.671875 0q5.328125 0 9.9375 -2.671875q3.796875 -2.140625 5.796875 -4.0l0.796875 -0.796875l13.859375 0l0 7.46875l15.140625 0l0 2.859375l-15.140625 0l0 20.65625q0 4.265625 2.0625 6.40625q2.078125 2.140625 5.46875 2.140625q3.40625 0 7.203125 -1.8125l1.0625 2.671875q-10.125 5.734375 -22.390625 5.734375zm-11.671875 -29.859375l0 19.328125q0 6.921875 6.875 8.203125l0.0625 -0.546875q-3.53125 -1.796875 -3.53125 -7.65625l0 -19.328125q0 -5.40625 -7.9375 -6.875l-0.125 0.46875q4.65625 1.671875 4.65625 6.40625zm56.00476 25.53125l0 -42.265625l-3.40625 0l0 42.265625l3.40625 0zm14.921875 -45.140625l0 19.34375q11.0 -10.0 23.125 -10.0q8.34375 0 12.109375 2.46875q3.765625 2.453125 3.765625 7.984375l0 19.40625q0 2.859375 1.5625 4.40625q1.5625 1.53125 4.4375 1.53125l4.390625 0l0 2.859375l-32.859375 0l0 -24.265625q0 -3.328125 -1.0 -4.71875q-1.0 -1.40625 -3.53125 -1.40625q-2.53125 0 -5.96875 1.703125q-3.4375 1.6875 -6.03125 4.21875l0 15.671875q0 2.859375 1.5625 4.40625q1.578125 1.53125 4.4375 1.53125l4.40625 0l0 2.859375l-43.265686 0l0 -2.859375l4.406311 0q2.859375 0 4.421875 -1.53125q1.5625 -1.546875 1.5625 -4.40625l0 -30.390625q0 -2.40625 -1.765625 -4.171875q-1.765625 -1.765625 -4.21875 -1.765625l-4.406311 0l0 -2.875l32.859436 0zm20.671875 24.203125l0 20.9375l3.390625 0l0 -20.9375q0 -3.125 -2.171875 -5.421875q-2.15625 -2.3125 -6.09375 -3.171875l-0.125 0.46875q2.328125 1.0 3.65625 3.140625q1.34375 2.125 1.34375 4.984375zm41.987366 -14.796875l0.9375 3.46875q11.59375 -3.53125 26.515625 -3.53125q14.9375 0 20.640625 2.171875q5.703125 2.15625 5.703125 8.28125l0 19.40625q0 5.9375 6.0 5.9375l4.390625 0l0 2.859375l-32.859375 0l0 -3.46875q-9.734375 4.9375 -19.640625 4.9375q-9.890625 0 -14.421875 -4.03125q-4.53125 -4.03125 -4.53125 -9.796875q0 -5.765625 4.59375 -9.703125q4.609375 -3.9375 14.09375 -3.9375q9.5 0 19.90625 0.46875l0 -0.203125q0 -9.265625 -10.671875 -9.265625q-5.921875 0 -11.59375 2.109375q-5.65625 2.09375 -9.125 4.5625l-2.734375 0l0 -10.265625l2.796875 0zm16.53125 24.703125q0 3.296875 1.890625 5.53125q1.90625 2.234375 5.375 2.234375q3.46875 0 7.53125 -1.40625l0 -14.59375q-3.796875 -0.203125 -7.296875 -0.203125q-3.5 0 -5.5 2.5625q-2.0 2.5625 -2.0 5.875zm18.921875 -13.375l0 24.40625l3.40625 0l0 -24.40625q0 -6.203125 -8.265625 -7.921875l-0.125 0.453125q4.984375 2.0 4.984375 7.46875zm-22.125 26.734375l0 -0.40625q-5.796875 0 -9.09375 -3.453125q-3.296875 -3.46875 -3.296875 -8.0q0 -4.546875 3.296875 -7.90625q3.296875 -3.359375 9.15625 -3.359375l0 -0.40625q-8.0625 0 -12.53125 3.4375q-4.453125 3.421875 -4.453125 8.234375q0 4.796875 4.5 8.328125q4.5 3.53125 12.421875 3.53125z" fill-rule="nonzero"/></g></svg>