<svg version="1.1" viewBox="0.0 0.0 738.4304461942257 180.64566929133858" fill="none" stroke="none" stroke-linecap="square" stroke-miterlimit="10" xmlns:xlink="http://www.w3.org/1999/xlink" xmlns="http://www.w3.org/2000/svg"><clipPath id="p.0"><path d="m0 0l738.4304 0l0 180.64568l-738.4304 0l0 -180.64568z" clip-rule="nonzero"/></clipPath><g clip-path="url(#p.0)"><path fill="#000000" fill-opacity="0.0" d="m0 0l738.4304 0l0 180.64568l-738.4304 0z" fill-rule="evenodd"/><path fill="#000000" fill-opacity="0.0" d="m0 -0.62992126l738.86615 0l0 182.5197l-738.86615 0z" fill-rule="evenodd"/><path fill="#cc0000" d="m175.5065 48.04696l0 5.5l-6.515625 0l-72.703125 80.64062l-4.609375 0l-72.328125 -80.64062l-8.578125 0l0 -5.5l90.109375 0l0 5.5l-3.578125 0q-3.84375 0 -5.953125 2.703125q-2.109375 2.6875 -2.109375 6.78125q0 6.140625 4.484375 10.625l23.9375 24.3125l16.640625 -18.171875q3.828125 -3.96875 3.828125 -9.921875q0 -5.953125 -6.40625 -11.140625q-6.390625 -5.1875 -16.109375 -5.1875l-6.40625 0l0 -5.5l66.296875 0zm-76.03125 74.375l-61.6875 -68.875l-11.140625 0l67.203125 75.01562l5.625 -6.1406174zm95.87077 -65.28125l1.796875 6.65625q22.28125 -6.78125 50.953125 -6.78125q28.67186 0 39.60936 4.15625q10.9375 4.15625 10.9375 15.9375l0 37.25q0 11.390625 11.53125 11.390625l8.4375 0l0 5.4999924l-63.093735 0l0 -6.6562424q-18.6875 9.468742 -37.703125 9.468742q-19.0 0 -27.703125 -7.7343674q-8.703125 -7.75 -8.703125 -18.8125q0 -11.078125 8.828125 -18.625q8.828125 -7.5625 27.0625 -7.5625q18.25 0 38.21875 0.890625l0 -0.375q0 -17.796875 -20.484375 -17.796875q-11.390625 0 -22.28125 4.03125q-10.875 4.03125 -17.53125 8.765625l-5.25 0l0 -19.703125l5.375 0zm31.75 47.421875q0 6.328125 3.640625 10.625q3.65625 4.28125 10.3125 4.28125q6.65625 0 14.46875 -2.6875l0 -28.03125q-7.296875 -0.375 -14.015625 -0.375q-6.71875 0 -10.5625 4.921875q-3.84375 4.921875 -3.84375 11.265625zm36.35936 -25.671875l0 46.859375l6.515625 0l0 -46.859375q0 -11.890625 -15.85936 -15.21875l-0.265625 0.890625q9.60936 3.84375 9.60936 14.328125zm-42.499985 51.328117l0 -0.765625q-11.140625 0 -17.484375 -6.6562424q-6.328125 -6.65625 -6.328125 -15.359375q0 -8.703125 6.328125 -15.15625q6.34375 -6.46875 17.609375 -6.46875l0 -0.765625q-15.484375 0 -24.0625 6.59375q-8.578125 6.578125 -8.578125 15.796875q0 9.21875 8.640625 16.0q8.640625 6.7812424 23.875 6.7812424zm217.98604 -65.26562q0.640625 -2.4375 1.78125 -4.609375l5.515625 0l0 23.546875l-5.375 0q-4.484375 -6.65625 -20.6875 -13.625q-16.1875 -6.984375 -33.84375 -6.984375q-12.796875 0 -12.796875 5.5q0 6.15625 19.828125 8.96875q19.59375 2.9375 36.875 8.4375q8.4375 2.828125 14.125 8.71875q5.703125 5.875 5.703125 13.9375q0 25.218742 -49.265625 25.218742q-28.8125 0 -54.65625 -8.578117l-2.828125 6.2812424l-5.5 0l0 -31.234367l5.5 0q4.484375 11.90625 20.734375 20.09375q16.265625 8.187492 34.6875 8.187492q18.4375 0 18.4375 -4.9843674q0 -3.203125 -8.1875 -6.140625q-8.1875 -2.953125 -19.84375 -5.765625q-11.640625 -2.8125 -23.234375 -6.390625q-11.578125 -3.59375 -19.78125 -9.734375q-8.1875 -6.140625 -8.1875 -13.953125q0 -11.140625 8.578125 -16.125q8.96875 -5.25 19.328125 -6.40625q9.734375 -1.15625 20.796875 -1.15625q11.078125 0 26.3125 2.0625q15.234375 2.046875 25.984375 4.734375zm-93.703125 16.25q0 8.578125 12.671875 14.78125q12.671875 6.203125 41.859375 13.375q12.546875 3.078125 18.6875 5.703125q6.140625 2.625 10.234375 7.609375l1.03125 -0.125q0 -6.53125 -4.734375 -10.234375q-2.5625 -1.921875 -4.9375 -3.328125q-2.359375 -1.421875 -6.96875 -2.765625q-4.609375 -1.34375 -7.5 -2.109375q-2.875 -0.765625 -8.828125 -2.109375q-5.9375 -1.34375 -11.515625 -2.6875q-5.5625 -1.34375 -11.96875 -3.453125q-6.390625 -2.109375 -12.28125 -5.1875q-12.296875 -6.390625 -13.0625 -16.0l-0.890625 0q-1.796875 3.59375 -1.796875 6.53125zm159.10413 44.546875l0 -81.15625l-6.53125 0l0 81.15625l6.53125 0zm28.671844 -86.65625l0 37.109375q21.125 -19.1875 44.421875 -19.1875q16.0 0 23.21875 4.734375q7.234375 4.734375 7.234375 15.359375l0 37.25q0 5.5 3.015625 8.453125q3.015625 2.9375 8.515625 2.9375l8.4375 0l0 5.4999924l-63.09375 0l0 -46.593742q0 -6.390625 -1.921875 -9.078125q-1.921875 -2.703125 -6.796875 -2.703125q-4.859375 0 -11.453125 3.265625q-6.578125 3.265625 -11.578125 8.140625l0 30.078125q0 5.5 3.0 8.453125q3.015625 2.9375 8.515625 2.9375l8.453125 0l0 5.4999924l-83.06247 0l0 -5.4999924l8.4375 0q5.5 0 8.5 -2.9375q3.015625 -2.953125 3.015625 -8.453125l0 -58.375q0 -4.609375 -3.390625 -8.0q-3.390625 -3.390625 -8.125 -3.390625l-8.4375 0l0 -5.5l63.09372 0zm39.6875 46.453125l0 40.203125l6.515625 0l0 -40.203125q0 -6.015625 -4.15625 -10.421875q-4.15625 -4.421875 -11.703125 -6.078125l-0.265625 0.890625q4.484375 1.921875 7.046875 6.015625q2.5625 4.09375 2.5625 9.59375zm141.30017 40.203125l8.453125 0l0 5.4999924l-83.0625 0l0 -5.4999924l8.4375 0q11.515625 0 11.515625 -11.390625l0 -37.640625q0 -4.609375 -3.390625 -8.0q-3.390625 -3.390625 -8.125 -3.390625l-8.4375 0l0 -5.5l63.21875 0l-0.125 54.53125q0 11.390625 11.515625 11.390625zm-40.1875 0l0 -60.421875l-6.53125 0l0 60.421875l6.53125 0zm24.953125 -100.609375q7.6875 4.734375 7.6875 11.390625q0 6.65625 -7.6875 11.328125q-7.671875 4.671875 -18.5625 4.671875q-10.875 0 -18.5625 -4.671875q-7.671875 -4.671875 -7.671875 -11.328125q0 -6.65625 7.671875 -11.390625q7.6875 -4.734375 18.5625 -4.734375q10.890625 0 18.5625 4.734375zm-28.796875 22.53125q-4.609375 -4.875 -4.609375 -11.265625q0 -6.40625 4.609375 -11.015625q-4.859375 1.671875 -7.875 4.6875q-3.0 3.0 -3.0 6.453125q0 3.453125 3.0 6.46875q3.015625 3.0 7.875 4.671875z" fill-rule="nonzero"/></g></svg>